<svg xmlns="http://www.w3.org/2000/svg" width="270" height="70" viewBox="0 0 270 70"><title>lab-shop</title><path d="M224.63,1.57a12.89,12.89,0,0,0-12.82,11.67,2.84,2.84,0,1,0,2.84.29,10,10,0,1,1,10,10.92h-1.42V35.8h2.85V27.22a12.86,12.86,0,0,0-1.43-25.65Z" fill="#8c8d8e"/><path d="M221.13,41.09h7.64a9.38,9.38,0,0,0,2,5.88,9.07,9.07,0,0,0,5.09,3,56.88,56.88,0,0,0,11,.79c5.22,0,8.66.13,10.31.28a19.84,19.84,0,0,1,6.35,1.57,10.39,10.39,0,0,1,6,7.14,22.78,22.78,0,0,1,.52,5.81V68.2h-7.36V66.75q0-4.87-1.75-6.46c-1.17-1.06-3.81-1.59-7.9-1.59q-11.72,0-14.85-.43a18.61,18.61,0,0,1-8.32-3A14.6,14.6,0,0,1,225,48.91a15.77,15.77,0,0,1-6.82,7.58q-4.23,2.2-14.31,2.21c-6.09,0-9.73.07-10.92.23-2.09.22-3.55.83-4.38,1.85s-1.24,3-1.24,6V68.2h-7.36V65.58a21.17,21.17,0,0,1,.75-6.65,10.77,10.77,0,0,1,3.47-5,12.72,12.72,0,0,1,6.14-2.55,90.21,90.21,0,0,1,12.13-.64q8.44,0,11.65-.79a9,9,0,0,0,5.08-3A9.32,9.32,0,0,0,221.13,41.09Z" fill="#115f82"/><path d="M4,11,5.66,5.13a.76.76,0,0,1,.21-.4.68.68,0,0,1,.41-.08h.44a.84.84,0,0,1,.41.08.74.74,0,0,1,.21.36L9.26,11l1-7.82H8.68A1.1,1.1,0,0,1,8,3a.58.58,0,0,1-.21-.5A.62.62,0,0,1,8,2a1.38,1.38,0,0,1,.76-.15h3.18a.52.52,0,0,1,.38.19.72.72,0,0,1,.17.48.62.62,0,0,1-.19.5.81.81,0,0,1-.56.16h-.12L10.22,13a.74.74,0,0,1-.11.4.33.33,0,0,1-.27.1h-.7a.53.53,0,0,1-.34-.09.72.72,0,0,1-.21-.33L6.45,6.34,4.56,13.13a.51.51,0,0,1-.18.32.62.62,0,0,1-.35.08H3.29A.4.4,0,0,1,3,13.44.8.8,0,0,1,2.87,13L1.37,3.19H1.25A.86.86,0,0,1,.68,3a.6.6,0,0,1-.19-.49.73.73,0,0,1,.15-.48A.49.49,0,0,1,1,1.86H4.22A1.3,1.3,0,0,1,5,2a.59.59,0,0,1,.2.52A.58.58,0,0,1,5,3a1.06,1.06,0,0,1-.65.16H2.91Z" fill="#8c8d8e"/><path d="M19.36,13.53H18.9a.73.73,0,0,1-.54-.18.71.71,0,0,1-.18-.53.59.59,0,0,1,.21-.53,2,2,0,0,1,1-.15H20V3.28h-.63a2,2,0,0,1-1-.15.64.64,0,0,1-.22-.56A.73.73,0,0,1,18.36,2a.81.81,0,0,1,.56-.17h8.57a.66.66,0,0,1,.51.2.92.92,0,0,1,.17.59V5a1.23,1.23,0,0,1-.15.71.62.62,0,0,1-.53.2.63.63,0,0,1-.55-.22,1.84,1.84,0,0,1-.16-1V3.28H21.54V6.59h2.58V6.07a1.34,1.34,0,0,1,.15-.74.57.57,0,0,1,.49-.2.51.51,0,0,1,.48.22,2.15,2.15,0,0,1,.13,1V8.13a2,2,0,0,1-.13.94.56.56,0,0,1-.5.21A.5.5,0,0,1,24.26,9a2,2,0,0,1-.14-.91V7.78H21.54v4.36h5.24V10.55a1.81,1.81,0,0,1,.16-1,.61.61,0,0,1,.55-.22.64.64,0,0,1,.53.2,1.35,1.35,0,0,1,.15.76V12.8a.73.73,0,0,1-.18.54.62.62,0,0,1-.5.19Z" fill="#8c8d8e"/><path d="M61.41,9.57a2,2,0,0,1,.15-1,.63.63,0,0,1,.56-.22.73.73,0,0,1,.53.19.77.77,0,0,1,.18.56V12.8a.77.77,0,0,1-.19.54.69.69,0,0,1-.52.19h-9.2a.63.63,0,0,1-.71-.71.59.59,0,0,1,.21-.53,1.93,1.93,0,0,1,1-.15h1.23V3.28H53.38a2,2,0,0,1-1-.15.67.67,0,0,1-.22-.56A.73.73,0,0,1,52.39,2,.84.84,0,0,1,53,1.86h5.33a.77.77,0,0,1,.54.18.71.71,0,0,1,.19.53.64.64,0,0,1-.23.56,2,2,0,0,1-1,.15H56.17v8.86h5.24Z" fill="#8c8d8e"/><path d="M77.75,12.14a2,2,0,0,1,1,.15.59.59,0,0,1,.21.53.65.65,0,0,1-.21.56,2,2,0,0,1-1,.15H71.31a.75.75,0,0,1-.54-.18.67.67,0,0,1-.19-.53.57.57,0,0,1,.22-.53,2,2,0,0,1,1-.15H74V3.28H71.77a2,2,0,0,1-1-.15.64.64,0,0,1-.23-.56A.7.7,0,0,1,70.77,2a.81.81,0,0,1,.56-.17h6.88a.73.73,0,0,1,.54.18.71.71,0,0,1,.18.53.64.64,0,0,1-.22.56,2,2,0,0,1-1,.15H75.53v8.86Z" fill="#8c8d8e"/><path d="M89.81,12.14h.66a1.51,1.51,0,0,1,.82.16.59.59,0,0,1,.23.52.67.67,0,0,1-.2.55,1.35,1.35,0,0,1-.79.16H87.16a.69.69,0,0,1-.51-.18.77.77,0,0,1-.17-.53.66.66,0,0,1,.19-.52,1,1,0,0,1,.66-.16h.94V3.28h-.63a1.91,1.91,0,0,1-1-.15.66.66,0,0,1-.21-.56A.78.78,0,0,1,86.65,2a.69.69,0,0,1,.51-.18h3.37a1.43,1.43,0,0,1,.79.16.67.67,0,0,1,.2.55.57.57,0,0,1-.26.55,2.12,2.12,0,0,1-1,.16h-.44v4l4.11-4h-.34a1.18,1.18,0,0,1-.7-.17.65.65,0,0,1-.21-.54A.77.77,0,0,1,92.83,2a.81.81,0,0,1,.54-.16h2.91a.69.69,0,0,1,.51.18.74.74,0,0,1,.18.53.63.63,0,0,1-.23.55,1.61,1.61,0,0,1-.82.16h-.14L92,7a3,3,0,0,1,1.65,1.1,27,27,0,0,1,2.48,4.08h.18a1.53,1.53,0,0,1,.82.15.64.64,0,0,1,.2.53.72.72,0,0,1-.17.53.66.66,0,0,1-.51.18h-.94a1.08,1.08,0,0,1-.46-.07.88.88,0,0,1-.29-.31c-.06-.1-.42-.76-1.09-2l-.39-.72A6.55,6.55,0,0,0,92.21,8.7,2.46,2.46,0,0,0,90.89,8l-1.08,1Z" fill="#8c8d8e"/><path d="M104.67,13.53h-.47a.72.72,0,0,1-.53-.18.71.71,0,0,1-.19-.53.59.59,0,0,1,.22-.53,2,2,0,0,1,1-.15h.63V3.28h-.63a1.93,1.93,0,0,1-1-.15.64.64,0,0,1-.23-.56.74.74,0,0,1,.19-.54.79.79,0,0,1,.55-.17h8.58a.66.66,0,0,1,.51.2.92.92,0,0,1,.17.59V5a1.23,1.23,0,0,1-.15.71.64.64,0,0,1-.53.2.65.65,0,0,1-.56-.22,2,2,0,0,1-.15-1V3.28h-5.24V6.59h2.58V6.07a1.46,1.46,0,0,1,.14-.74.6.6,0,0,1,.5-.2.51.51,0,0,1,.48.22,2.15,2.15,0,0,1,.13,1V8.13a1.87,1.87,0,0,1-.14.94.53.53,0,0,1-.49.21.52.52,0,0,1-.49-.24,2.22,2.22,0,0,1-.13-.91V7.78h-2.58v4.36h5.24V10.55a2,2,0,0,1,.15-1,.63.63,0,0,1,.56-.22.65.65,0,0,1,.53.2,1.35,1.35,0,0,1,.15.76V12.8a.73.73,0,0,1-.18.54.63.63,0,0,1-.5.19Z" fill="#8c8d8e"/><path d="M139.32,5.84a1.91,1.91,0,0,1-.17.94.73.73,0,0,1-.6.2A.66.66,0,0,1,138,6.8a.75.75,0,0,1-.18-.54,4.4,4.4,0,0,0,0-.46l.1-3.25a.78.78,0,0,1,.2-.53.84.84,0,0,1,.55-.16h8.56a.84.84,0,0,1,.55.16.74.74,0,0,1,.19.53l.1,3.25c0,.12,0,.23,0,.33s0,.16,0,.15a.71.71,0,0,1-.18.53.86.86,0,0,1-.57.17.65.65,0,0,1-.54-.2,2,2,0,0,1-.16-.94l-.1-2.56h-2.83v8.86h1.9a.94.94,0,0,1,.6.16.65.65,0,0,1,.19.52.72.72,0,0,1-.18.53.69.69,0,0,1-.51.18h-5.52a.7.7,0,0,1-.52-.18.77.77,0,0,1-.17-.53.62.62,0,0,1,.19-.52,1,1,0,0,1,.65-.16h1.85V3.28h-2.83Z" fill="#8c8d8e"/><path d="M165.39,7.69a6.55,6.55,0,0,1-1.49,4.42,5.1,5.1,0,0,1-7.65,0,6.48,6.48,0,0,1-1.5-4.41,6.56,6.56,0,0,1,1.48-4.44,5.14,5.14,0,0,1,7.67,0A6.55,6.55,0,0,1,165.39,7.69Zm-5.32,4.76a3.06,3.06,0,0,0,2.6-1.27,5.72,5.72,0,0,0,1-3.49,5.75,5.75,0,0,0-1-3.5,3.31,3.31,0,0,0-5.21,0,5.74,5.74,0,0,0-.94,3.51,5.72,5.72,0,0,0,.95,3.49A3.06,3.06,0,0,0,160.07,12.45Z" fill="#8c8d8e"/><path d="M-.24,54.49l8.43-.82a10.33,10.33,0,0,0,3.09,6.24,9.41,9.41,0,0,0,6.29,2q4.18,0,6.31-1.77A5.27,5.27,0,0,0,26,56a3.9,3.9,0,0,0-.89-2.59A7.15,7.15,0,0,0,22,51.54c-1-.36-3.33-1-6.94-1.88q-7-1.72-9.78-4.24a11.15,11.15,0,0,1-4-8.63,11,11,0,0,1,1.86-6.13,11.59,11.59,0,0,1,5.36-4.35A21.4,21.4,0,0,1,17,24.82q8.09,0,12.17,3.54a12.44,12.44,0,0,1,4.29,9.45l-8.67.38a7.33,7.33,0,0,0-2.38-4.75A8.75,8.75,0,0,0,16.89,32,9.84,9.84,0,0,0,11,33.54,3.12,3.12,0,0,0,9.6,36.2a3.31,3.31,0,0,0,1.29,2.61c1.09.91,3.75,1.87,8,2.86a42.51,42.51,0,0,1,9.35,3.09A12,12,0,0,1,33,49.12,12.78,12.78,0,0,1,34.67,56a12.58,12.58,0,0,1-2.05,6.9,12.27,12.27,0,0,1-5.8,4.79,24.4,24.4,0,0,1-9.34,1.56Q9.34,69.21,5,65.45T-.24,54.49Z" fill="#115f82"/><path d="M42,68.45V25.55h8.67V42.43h17V25.55h8.67v42.9H67.66V49.69h-17V68.45Z" fill="#115f82"/><path d="M83.53,47.26a27.41,27.41,0,0,1,2-11,20.09,20.09,0,0,1,4-5.88A16.72,16.72,0,0,1,95,26.51a23.64,23.64,0,0,1,9.26-1.69q9.49,0,15.19,5.88t5.69,16.36q0,10.38-5.65,16.26t-15.11,5.86q-9.58,0-15.24-5.84T83.53,47.26ZM92.46,47q0,7.29,3.37,11.05a11.6,11.6,0,0,0,17.07,0q3.31-3.73,3.32-11.2t-3.24-11a12,12,0,0,0-17.23,0Q92.47,39.57,92.46,47Z" fill="#115f82"/><path d="M132,68.45V25.55h13.91q7.9,0,10.31.64a11.32,11.32,0,0,1,6.18,4.2,13.32,13.32,0,0,1,2.49,8.36,14.05,14.05,0,0,1-1.43,6.64,11.76,11.76,0,0,1-3.65,4.23,12.54,12.54,0,0,1-4.5,2,49.35,49.35,0,0,1-9,.62h-5.65V68.45Zm8.67-35.64V45h4.74q5.13,0,6.86-.67a5.72,5.72,0,0,0,2.71-2.11,5.81,5.81,0,0,0,1-3.34A5.53,5.53,0,0,0,154.53,35a6,6,0,0,0-3.48-1.9,41.25,41.25,0,0,0-6.24-.29Z" fill="#115f82"/></svg>